<mxfile host="Electron" agent="Mozilla/5.0 (Windows NT 10.0; Win64; x64) AppleWebKit/537.36 (KHTML, like Gecko) draw.io/28.0.6 Chrome/138.0.7204.100 Electron/37.2.3 Safari/537.36" version="28.0.6">
  <diagram name="Page-1" id="5mi68mloLvMjz6mnddfT">
    <mxGraphModel dx="1596" dy="984" grid="1" gridSize="10" guides="1" tooltips="1" connect="1" arrows="1" fold="1" page="1" pageScale="1" pageWidth="1920" pageHeight="1200" math="0" shadow="0">
      <root>
        <mxCell id="0" />
        <mxCell id="1" parent="0" />
        <mxCell id="dfKpy64W_gBiXT2jWoOw-54" value="" style="rounded=1;whiteSpace=wrap;html=1;fillColor=#fff2cc;strokeColor=#d6b656;glass=1;shadow=1;opacity=30;gradientColor=none;" parent="1" vertex="1">
          <mxGeometry x="932.5" y="210" width="825" height="688" as="geometry" />
        </mxCell>
        <mxCell id="dfKpy64W_gBiXT2jWoOw-52" value="" style="rounded=1;whiteSpace=wrap;html=1;fillColor=#dae8fc;strokeColor=#6c8ebf;glass=1;shadow=1;opacity=30;" parent="1" vertex="1">
          <mxGeometry x="30" y="222" width="825" height="688" as="geometry" />
        </mxCell>
        <mxCell id="dfKpy64W_gBiXT2jWoOw-1" value="&lt;font&gt;&lt;b&gt;Integration Model&lt;/b&gt;&lt;/font&gt;" style="text;html=1;align=center;verticalAlign=middle;resizable=0;points=[];autosize=1;strokeColor=none;fillColor=none;fontSize=35;" parent="1" vertex="1">
          <mxGeometry x="40" y="40" width="320" height="60" as="geometry" />
        </mxCell>
        <mxCell id="dfKpy64W_gBiXT2jWoOw-2" value="&lt;font&gt;(How to tables are Related)&lt;/font&gt;" style="text;html=1;align=center;verticalAlign=middle;resizable=0;points=[];autosize=1;strokeColor=none;fillColor=none;fontSize=20;" parent="1" vertex="1">
          <mxGeometry x="335" y="51" width="270" height="40" as="geometry" />
        </mxCell>
        <mxCell id="dfKpy64W_gBiXT2jWoOw-20" value="crm_sales_details" style="swimlane;fontStyle=0;childLayout=stackLayout;horizontal=1;startSize=30;horizontalStack=0;resizeParent=1;resizeParentMax=0;resizeLast=0;collapsible=1;marginBottom=0;whiteSpace=wrap;html=1;fontSize=25;fillColor=#dae8fc;strokeColor=#6c8ebf;rounded=1;arcSize=30;" parent="1" vertex="1">
          <mxGeometry x="45" y="490" width="310" height="140" as="geometry" />
        </mxCell>
        <mxCell id="dfKpy64W_gBiXT2jWoOw-21" value="sls_prd_key" style="text;strokeColor=none;fillColor=none;align=left;verticalAlign=middle;spacingLeft=4;spacingRight=4;overflow=hidden;points=[[0,0.5],[1,0.5]];portConstraint=eastwest;rotatable=0;whiteSpace=wrap;html=1;fontSize=25;" parent="dfKpy64W_gBiXT2jWoOw-20" vertex="1">
          <mxGeometry y="30" width="310" height="40" as="geometry" />
        </mxCell>
        <mxCell id="dfKpy64W_gBiXT2jWoOw-32" value="sls_cust_id" style="text;strokeColor=none;fillColor=none;align=left;verticalAlign=middle;spacingLeft=4;spacingRight=4;overflow=hidden;points=[[0,0.5],[1,0.5]];portConstraint=eastwest;rotatable=0;whiteSpace=wrap;html=1;fontSize=25;" parent="dfKpy64W_gBiXT2jWoOw-20" vertex="1">
          <mxGeometry y="70" width="310" height="40" as="geometry" />
        </mxCell>
        <mxCell id="sXHoPLpF8ZUHw-RQI-RD-10" value="&lt;span&gt;Sales&lt;/span&gt;" style="text;html=1;strokeColor=#9673a6;fillColor=#e1d5e7;align=center;verticalAlign=middle;whiteSpace=wrap;overflow=hidden;fontSize=25;fontStyle=0;fontFamily=Tahoma;" vertex="1" parent="dfKpy64W_gBiXT2jWoOw-20">
          <mxGeometry y="110" width="310" height="30" as="geometry" />
        </mxCell>
        <mxCell id="dfKpy64W_gBiXT2jWoOw-33" style="edgeStyle=orthogonalEdgeStyle;rounded=0;orthogonalLoop=1;jettySize=auto;html=1;entryX=0;entryY=0.5;entryDx=0;entryDy=0;" parent="1" source="dfKpy64W_gBiXT2jWoOw-21" target="dfKpy64W_gBiXT2jWoOw-19" edge="1">
          <mxGeometry relative="1" as="geometry" />
        </mxCell>
        <mxCell id="dfKpy64W_gBiXT2jWoOw-34" style="edgeStyle=orthogonalEdgeStyle;rounded=0;orthogonalLoop=1;jettySize=auto;html=1;entryX=0;entryY=0.5;entryDx=0;entryDy=0;" parent="1" source="dfKpy64W_gBiXT2jWoOw-32" target="dfKpy64W_gBiXT2jWoOw-4" edge="1">
          <mxGeometry relative="1" as="geometry" />
        </mxCell>
        <mxCell id="dfKpy64W_gBiXT2jWoOw-36" style="edgeStyle=orthogonalEdgeStyle;rounded=0;orthogonalLoop=1;jettySize=auto;html=1;entryX=0;entryY=0.5;entryDx=0;entryDy=0;exitX=1;exitY=0.5;exitDx=0;exitDy=0;" parent="1" source="dfKpy64W_gBiXT2jWoOw-35" target="dfKpy64W_gBiXT2jWoOw-24" edge="1">
          <mxGeometry relative="1" as="geometry">
            <Array as="points">
              <mxPoint x="1000" y="760" />
              <mxPoint x="1000" y="828" />
            </Array>
          </mxGeometry>
        </mxCell>
        <mxCell id="dfKpy64W_gBiXT2jWoOw-37" style="edgeStyle=orthogonalEdgeStyle;rounded=0;orthogonalLoop=1;jettySize=auto;html=1;entryX=0;entryY=0.5;entryDx=0;entryDy=0;" parent="1" source="dfKpy64W_gBiXT2jWoOw-35" target="dfKpy64W_gBiXT2jWoOw-26" edge="1">
          <mxGeometry relative="1" as="geometry">
            <Array as="points">
              <mxPoint x="1000" y="760" />
              <mxPoint x="1000" y="698" />
            </Array>
          </mxGeometry>
        </mxCell>
        <mxCell id="dfKpy64W_gBiXT2jWoOw-38" style="edgeStyle=orthogonalEdgeStyle;rounded=0;orthogonalLoop=1;jettySize=auto;html=1;entryX=0;entryY=0.5;entryDx=0;entryDy=0;" parent="1" source="dfKpy64W_gBiXT2jWoOw-19" target="dfKpy64W_gBiXT2jWoOw-28" edge="1">
          <mxGeometry relative="1" as="geometry" />
        </mxCell>
        <mxCell id="dfKpy64W_gBiXT2jWoOw-48" value="Transaction Record about Sales&amp;nbsp;&lt;div&gt;&amp;amp; orders&lt;/div&gt;" style="text;html=1;align=center;verticalAlign=middle;whiteSpace=wrap;rounded=0;fontSize=18;rotation=0;" parent="1" vertex="1">
          <mxGeometry x="40" y="454" width="320" height="30" as="geometry" />
        </mxCell>
        <mxCell id="dfKpy64W_gBiXT2jWoOw-55" value="CRM" style="rounded=1;whiteSpace=wrap;html=1;fontSize=25;fillColor=#dae8fc;strokeColor=#6c8ebf;fontStyle=1" parent="1" vertex="1">
          <mxGeometry x="362.5" y="200" width="160" height="50" as="geometry" />
        </mxCell>
        <mxCell id="dfKpy64W_gBiXT2jWoOw-56" value="ERP" style="rounded=1;whiteSpace=wrap;html=1;fontSize=25;fillColor=#fff2cc;strokeColor=#d6b656;fontStyle=1" parent="1" vertex="1">
          <mxGeometry x="1265" y="180" width="160" height="50" as="geometry" />
        </mxCell>
        <mxCell id="dfKpy64W_gBiXT2jWoOw-58" value="" style="group" parent="1" vertex="1" connectable="0">
          <mxGeometry x="495" y="640" width="325" height="140" as="geometry" />
        </mxCell>
        <mxCell id="dfKpy64W_gBiXT2jWoOw-3" value="crm_cust_info" style="swimlane;fontStyle=0;childLayout=stackLayout;horizontal=1;startSize=30;horizontalStack=0;resizeParent=1;resizeParentMax=0;resizeLast=0;collapsible=1;marginBottom=0;whiteSpace=wrap;html=1;fontSize=25;fillColor=#dae8fc;strokeColor=#6c8ebf;rounded=1;arcSize=30;" parent="dfKpy64W_gBiXT2jWoOw-58" vertex="1">
          <mxGeometry y="30" width="310" height="140" as="geometry" />
        </mxCell>
        <mxCell id="dfKpy64W_gBiXT2jWoOw-4" value="cst_id" style="text;strokeColor=none;fillColor=none;align=left;verticalAlign=middle;spacingLeft=4;spacingRight=4;overflow=hidden;points=[[0,0.5],[1,0.5]];portConstraint=eastwest;rotatable=0;whiteSpace=wrap;html=1;fontSize=25;" parent="dfKpy64W_gBiXT2jWoOw-3" vertex="1">
          <mxGeometry y="30" width="310" height="40" as="geometry" />
        </mxCell>
        <mxCell id="dfKpy64W_gBiXT2jWoOw-35" value="cst_key" style="text;strokeColor=none;fillColor=none;align=left;verticalAlign=middle;spacingLeft=4;spacingRight=4;overflow=hidden;points=[[0,0.5],[1,0.5]];portConstraint=eastwest;rotatable=0;whiteSpace=wrap;html=1;fontSize=25;" parent="dfKpy64W_gBiXT2jWoOw-3" vertex="1">
          <mxGeometry y="70" width="310" height="40" as="geometry" />
        </mxCell>
        <mxCell id="sXHoPLpF8ZUHw-RQI-RD-9" value="&lt;span&gt;Customer&lt;/span&gt;" style="text;html=1;strokeColor=#82b366;fillColor=#d5e8d4;align=center;verticalAlign=middle;whiteSpace=wrap;overflow=hidden;fontSize=25;fontStyle=0;fontFamily=Tahoma;" vertex="1" parent="dfKpy64W_gBiXT2jWoOw-3">
          <mxGeometry y="110" width="310" height="30" as="geometry" />
        </mxCell>
        <mxCell id="dfKpy64W_gBiXT2jWoOw-49" value="Customer Information&amp;nbsp;" style="text;html=1;align=center;verticalAlign=middle;whiteSpace=wrap;rounded=0;fontSize=18;rotation=0;" parent="dfKpy64W_gBiXT2jWoOw-58" vertex="1">
          <mxGeometry x="5" width="320" height="30" as="geometry" />
        </mxCell>
        <mxCell id="dfKpy64W_gBiXT2jWoOw-59" value="" style="group" parent="1" vertex="1" connectable="0">
          <mxGeometry x="1180" y="750" width="350" height="98" as="geometry" />
        </mxCell>
        <mxCell id="dfKpy64W_gBiXT2jWoOw-23" value="erp_cust_az12" style="swimlane;fontStyle=0;childLayout=stackLayout;horizontal=1;startSize=30;horizontalStack=0;resizeParent=1;resizeParentMax=0;resizeLast=0;collapsible=1;marginBottom=0;whiteSpace=wrap;html=1;fontSize=25;fillColor=#fff2cc;strokeColor=#d6b656;" parent="dfKpy64W_gBiXT2jWoOw-59" vertex="1">
          <mxGeometry x="20" y="28" width="310" height="100" as="geometry" />
        </mxCell>
        <mxCell id="dfKpy64W_gBiXT2jWoOw-24" value="CID" style="text;strokeColor=none;fillColor=none;align=left;verticalAlign=middle;spacingLeft=4;spacingRight=4;overflow=hidden;points=[[0,0.5],[1,0.5]];portConstraint=eastwest;rotatable=0;whiteSpace=wrap;html=1;fontSize=25;" parent="dfKpy64W_gBiXT2jWoOw-23" vertex="1">
          <mxGeometry y="30" width="310" height="40" as="geometry" />
        </mxCell>
        <mxCell id="sXHoPLpF8ZUHw-RQI-RD-7" value="&lt;span&gt;Customer&lt;/span&gt;" style="text;html=1;strokeColor=#82b366;fillColor=#d5e8d4;align=center;verticalAlign=middle;whiteSpace=wrap;overflow=hidden;fontSize=25;fontStyle=0;fontFamily=Tahoma;" vertex="1" parent="dfKpy64W_gBiXT2jWoOw-23">
          <mxGeometry y="70" width="310" height="30" as="geometry" />
        </mxCell>
        <mxCell id="dfKpy64W_gBiXT2jWoOw-46" value="Location of Customer (Country)" style="text;html=1;align=center;verticalAlign=middle;whiteSpace=wrap;rounded=0;fontSize=18;rotation=0;" parent="dfKpy64W_gBiXT2jWoOw-59" vertex="1">
          <mxGeometry width="350" height="30" as="geometry" />
        </mxCell>
        <mxCell id="dfKpy64W_gBiXT2jWoOw-60" value="" style="group" parent="1" vertex="1" connectable="0">
          <mxGeometry x="1190" y="620" width="350" height="98" as="geometry" />
        </mxCell>
        <mxCell id="dfKpy64W_gBiXT2jWoOw-25" value="erp_loc_a101" style="swimlane;fontStyle=0;childLayout=stackLayout;horizontal=1;startSize=30;horizontalStack=0;resizeParent=1;resizeParentMax=0;resizeLast=0;collapsible=1;marginBottom=0;whiteSpace=wrap;html=1;fontSize=25;fillColor=#fff2cc;strokeColor=#d6b656;rounded=1;" parent="dfKpy64W_gBiXT2jWoOw-60" vertex="1">
          <mxGeometry x="20" y="28" width="310" height="100" as="geometry" />
        </mxCell>
        <mxCell id="dfKpy64W_gBiXT2jWoOw-26" value="CID" style="text;strokeColor=none;fillColor=none;align=left;verticalAlign=middle;spacingLeft=4;spacingRight=4;overflow=hidden;points=[[0,0.5],[1,0.5]];portConstraint=eastwest;rotatable=0;whiteSpace=wrap;html=1;fontSize=25;" parent="dfKpy64W_gBiXT2jWoOw-25" vertex="1">
          <mxGeometry y="30" width="310" height="40" as="geometry" />
        </mxCell>
        <mxCell id="sXHoPLpF8ZUHw-RQI-RD-6" value="&lt;span&gt;Customer&lt;/span&gt;" style="text;html=1;strokeColor=#82b366;fillColor=#d5e8d4;align=center;verticalAlign=middle;whiteSpace=wrap;overflow=hidden;fontSize=25;fontStyle=0;fontFamily=Tahoma;" vertex="1" parent="dfKpy64W_gBiXT2jWoOw-25">
          <mxGeometry y="70" width="310" height="30" as="geometry" />
        </mxCell>
        <mxCell id="dfKpy64W_gBiXT2jWoOw-45" value="Extra Customer Information (Birthdate)" style="text;html=1;align=center;verticalAlign=middle;whiteSpace=wrap;rounded=0;fontSize=18;rotation=0;" parent="dfKpy64W_gBiXT2jWoOw-60" vertex="1">
          <mxGeometry width="350" height="30" as="geometry" />
        </mxCell>
        <mxCell id="dfKpy64W_gBiXT2jWoOw-61" value="" style="group" parent="1" vertex="1" connectable="0">
          <mxGeometry x="500" y="330" width="320" height="140" as="geometry" />
        </mxCell>
        <mxCell id="dfKpy64W_gBiXT2jWoOw-18" value="crm_prd_info" style="swimlane;fontStyle=0;childLayout=stackLayout;horizontal=1;startSize=30;horizontalStack=0;resizeParent=1;resizeParentMax=0;resizeLast=0;collapsible=1;marginBottom=0;whiteSpace=wrap;html=1;fontSize=25;fillColor=#dae8fc;strokeColor=#6c8ebf;rounded=1;arcSize=26;" parent="dfKpy64W_gBiXT2jWoOw-61" vertex="1">
          <mxGeometry y="30" width="310" height="100" as="geometry" />
        </mxCell>
        <mxCell id="dfKpy64W_gBiXT2jWoOw-19" value="prd_key" style="text;strokeColor=none;fillColor=none;align=left;verticalAlign=middle;spacingLeft=4;spacingRight=4;overflow=hidden;points=[[0,0.5],[1,0.5]];portConstraint=eastwest;rotatable=0;whiteSpace=wrap;html=1;fontSize=25;" parent="dfKpy64W_gBiXT2jWoOw-18" vertex="1">
          <mxGeometry y="30" width="310" height="40" as="geometry" />
        </mxCell>
        <mxCell id="sXHoPLpF8ZUHw-RQI-RD-2" value="&lt;span&gt;Product&lt;/span&gt;" style="text;html=1;strokeColor=#b85450;fillColor=#f8cecc;align=center;verticalAlign=middle;whiteSpace=wrap;overflow=hidden;fontSize=25;fontStyle=0;fontFamily=Tahoma;" vertex="1" parent="dfKpy64W_gBiXT2jWoOw-18">
          <mxGeometry y="70" width="310" height="30" as="geometry" />
        </mxCell>
        <mxCell id="dfKpy64W_gBiXT2jWoOw-47" value="Current &amp;amp; History Product information&amp;nbsp;" style="text;html=1;align=center;verticalAlign=middle;whiteSpace=wrap;rounded=0;fontSize=18;rotation=0;" parent="dfKpy64W_gBiXT2jWoOw-61" vertex="1">
          <mxGeometry width="320" height="30" as="geometry" />
        </mxCell>
        <mxCell id="dfKpy64W_gBiXT2jWoOw-62" value="" style="group" parent="1" vertex="1" connectable="0">
          <mxGeometry x="1170" y="330" width="350" height="100" as="geometry" />
        </mxCell>
        <mxCell id="dfKpy64W_gBiXT2jWoOw-27" value="erp_px_cat_g1v2" style="swimlane;fontStyle=0;childLayout=stackLayout;horizontal=1;startSize=30;horizontalStack=0;resizeParent=1;resizeParentMax=0;resizeLast=0;collapsible=1;marginBottom=0;whiteSpace=wrap;html=1;fontSize=25;fillColor=#fff2cc;strokeColor=#d6b656;rounded=1;" parent="dfKpy64W_gBiXT2jWoOw-62" vertex="1">
          <mxGeometry x="15" y="30" width="310" height="100" as="geometry" />
        </mxCell>
        <mxCell id="dfKpy64W_gBiXT2jWoOw-28" value="ID" style="text;strokeColor=none;fillColor=none;align=left;verticalAlign=middle;spacingLeft=4;spacingRight=4;overflow=hidden;points=[[0,0.5],[1,0.5]];portConstraint=eastwest;rotatable=0;whiteSpace=wrap;html=1;fontSize=25;" parent="dfKpy64W_gBiXT2jWoOw-27" vertex="1">
          <mxGeometry y="30" width="310" height="40" as="geometry" />
        </mxCell>
        <mxCell id="sXHoPLpF8ZUHw-RQI-RD-5" value="&lt;span&gt;Product&lt;/span&gt;" style="text;html=1;strokeColor=#b85450;fillColor=#f8cecc;align=center;verticalAlign=middle;whiteSpace=wrap;overflow=hidden;fontSize=25;fontStyle=0;fontFamily=Tahoma;" vertex="1" parent="dfKpy64W_gBiXT2jWoOw-27">
          <mxGeometry y="70" width="310" height="30" as="geometry" />
        </mxCell>
        <mxCell id="dfKpy64W_gBiXT2jWoOw-42" value="Extra Customer Information (Birthdate)" style="text;html=1;align=center;verticalAlign=middle;whiteSpace=wrap;rounded=0;fontSize=18;rotation=0;" parent="dfKpy64W_gBiXT2jWoOw-62" vertex="1">
          <mxGeometry width="350" height="30" as="geometry" />
        </mxCell>
        <mxCell id="sXHoPLpF8ZUHw-RQI-RD-1" value="" style="edgeStyle=entityRelationEdgeStyle;fontSize=12;html=1;endArrow=ERzeroToOne;startArrow=ERmandOne;rounded=0;" edge="1" parent="1">
          <mxGeometry width="100" height="100" relative="1" as="geometry">
            <mxPoint x="830" y="570" as="sourcePoint" />
            <mxPoint x="930" y="470" as="targetPoint" />
          </mxGeometry>
        </mxCell>
        <mxCell id="sXHoPLpF8ZUHw-RQI-RD-8" style="edgeStyle=orthogonalEdgeStyle;rounded=0;orthogonalLoop=1;jettySize=auto;html=1;exitX=0.75;exitY=1;exitDx=0;exitDy=0;entryX=0.75;entryY=1;entryDx=0;entryDy=0;" edge="1" parent="1" source="dfKpy64W_gBiXT2jWoOw-18" target="sXHoPLpF8ZUHw-RQI-RD-6">
          <mxGeometry relative="1" as="geometry" />
        </mxCell>
      </root>
    </mxGraphModel>
  </diagram>
</mxfile>
